<?xml version="1.0" encoding="UTF-8" standalone="no"?>
<svg
   width="38"
   height="38"
   viewBox="0 0 38 38"
   fill="none"
   version="1.1"
   id="svg37"
   sodipodi:docname="favicon-perpetual.svg"
   inkscape:version="1.4 (e7c3feb1, 2024-10-09)"
   inkscape:export-filename="favicon-perpetual.png"
   inkscape:export-xdpi="96"
   inkscape:export-ydpi="96"
   xmlns:inkscape="http://www.inkscape.org/namespaces/inkscape"
   xmlns:sodipodi="http://sodipodi.sourceforge.net/DTD/sodipodi-0.dtd"
   xmlns="http://www.w3.org/2000/svg"
   xmlns:svg="http://www.w3.org/2000/svg">
  <sodipodi:namedview
     id="namedview37"
     pagecolor="#ffffff"
     bordercolor="#000000"
     borderopacity="0.25"
     inkscape:showpageshadow="2"
     inkscape:pageopacity="0.0"
     inkscape:pagecheckerboard="0"
     inkscape:deskcolor="#d1d1d1"
     inkscape:zoom="5.4736842"
     inkscape:cx="23.293269"
     inkscape:cy="16.076923"
     inkscape:window-width="2056"
     inkscape:window-height="1183"
     inkscape:window-x="0"
     inkscape:window-y="44"
     inkscape:window-maximized="1"
     inkscape:current-layer="svg37" />
  <defs
     id="defs37">
    <clipPath
       id="clip0_444_3904">
      <rect
         width="36"
         height="37"
         fill="#ffffff"
         transform="translate(0,0.5)"
         id="rect36"
         x="0"
         y="0" />
    </clipPath>
    <clipPath
       id="clip1_444_3904">
      <rect
         width="72"
         height="37"
         fill="#ffffff"
         transform="translate(46,0.5)"
         id="rect37"
         x="0"
         y="0" />
    </clipPath>
  </defs>
  <circle
     style="fill:#ffffff;fill-opacity:1;stroke:none;stroke-width:40.6457"
     id="path37"
     cx="19"
     cy="19"
     r="19" />
  <g
     clip-path="url(#clip0_444_3904)"
     id="g18"
     transform="matrix(0.75325565,0,0,0.75325565,5.4413978,4.6881426)"
     style="fill:#1a1a1a">
    <path
       d="M 35.5222,11.8848 C 35.4645,8.06085 32.6717,4.16743 28.4042,1.97529 24.9078,0.177367 21.3544,0.00772536 19.1337,1.5491 17.2496,2.85201 15.8389,5.11784 14.7251,7.71948 9.41475,6.9999 5.72226,7.81334 3.4453,10.228 -0.288214,13.8648 -1.02657,19.648 1.42211,26.0853 3.82421,32.4121 8.57419,37.3165 12.4711,37.4958 12.5406,37.5 12.6157,37.5 12.688,37.5 c 1.889,0 3.4499,-1.1499 4.5428,-3.4109 0.0473,-0.1092 0.1516,-0.5263 0.1815,-0.6174 0.9907,-3.0723 0.8085,-8.065 0.5847,-13.376 -0.08,-1.8821 -0.1606,-3.7815 -0.1829,-5.5912 4.4316,1.793 8.6684,3.3511 11.9174,3.3511 1.1923,0.0473 2.3731,-0.2483 3.4025,-0.8517 1.4503,-0.9198 2.252,-2.6427 2.3882,-5.1191 z M 5.09931,14.266 c -0.03824,-1.3905 0.37057,-2.3381 1.21809,-2.8234 1.28274,-0.7328 4.102,0.1661 6.7162,1.1541 -0.6814,2.4271 -1.2028,4.8591 -1.636,6.9206 -0.6257,2.9812 -1.1743,5.5571 -1.76732,5.5787 C 7.10095,21.2832 5.17579,17.0547 5.09931,14.266 Z M 20.7669,3.36302 C 21.088,3.25724 21.4286,3.22413 21.764,3.2661 c 0.3355,0.04196 0.6575,0.15795 0.9426,0.33957 2.035,1.08181 4.0673,4.19864 4.7048,7.14583 C 26.5396,10.5214 25.6566,10.2871 24.7215,10.027 22.5863,9.43537 20.3761,8.82216 18.1471,8.33687 18.5247,5.85412 19.2776,3.98458 20.7669,3.36302 Z"
       fill="#0b7384"
       id="path1"
       style="fill:#1a1a1a" />
    <path
       d="M 47.233,14.5 V 4.31818 h 3.4403 c 0.7988,0 1.4517,0.14418 1.9588,0.43253 0.5104,0.28504 0.8883,0.67117 1.1335,1.15838 0.2453,0.48722 0.3679,1.03078 0.3679,1.63068 0,0.59991 -0.1226,1.14513 -0.3679,1.63566 -0.2419,0.49053 -0.6165,0.88167 -1.1236,1.17327 -0.5071,0.2884 -1.1567,0.4325 -1.9488,0.4325 H 48.2273 V 9.6875 h 2.4261 c 0.5469,0 0.986,-0.09446 1.3175,-0.28338 0.3314,-0.18892 0.5717,-0.44413 0.7209,-0.76563 0.1524,-0.32481 0.2287,-0.69105 0.2287,-1.09872 0,-0.40767 -0.0763,-0.77225 -0.2287,-1.09375 C 52.5426,6.12453 52.3007,5.87263 51.9659,5.69034 51.6312,5.50473 51.187,5.41193 50.6335,5.41193 H 48.4659 V 14.5 Z"
       fill="#0b7384"
       id="path2"
       style="fill:#1a1a1a" />
    <path
       d="m 59.0803,14.6591 c -0.7358,0 -1.3705,-0.1624 -1.9042,-0.4872 -0.5303,-0.3281 -0.9396,-0.7855 -1.2279,-1.3722 -0.2851,-0.5899 -0.4276,-1.276 -0.4276,-2.0582 0,-0.78222 0.1425,-1.47161 0.4276,-2.0682 0.2883,-0.59991 0.6893,-1.06724 1.2031,-1.40199 0.517,-0.33807 1.1202,-0.50711 1.8096,-0.50711 0.3978,0 0.7905,0.06629 1.1783,0.19887 0.3878,0.13257 0.7408,0.34801 1.059,0.64631 0.3181,0.29498 0.5717,0.68607 0.7606,1.17329 0.1889,0.48722 0.2834,1.08712 0.2834,1.79973 v 0.4971 H 56.3558 V 10.0653 H 61.049 C 61.049,9.63447 60.9628,9.25 60.7905,8.91193 60.6214,8.57386 60.3795,8.30705 60.0646,8.11151 59.7531,7.91596 59.3852,7.81818 58.9609,7.81818 c -0.4673,0 -0.8717,0.11601 -1.213,0.34801 -0.3381,0.2287 -0.5983,0.52699 -0.7806,0.89489 -0.1823,0.3679 -0.2734,0.76231 -0.2734,1.18322 v 0.6762 c 0,0.5767 0.0994,1.0655 0.2983,1.4666 0.2022,0.3977 0.4822,0.701 0.8402,0.9098 0.3579,0.2055 0.7739,0.3082 1.2479,0.3082 0.3082,0 0.5866,-0.0431 0.8352,-0.1292 0.2519,-0.0895 0.469,-0.2221 0.6513,-0.3978 0.1823,-0.179 0.3231,-0.401 0.4225,-0.6662 l 1.1336,0.3182 c -0.1193,0.3845 -0.3199,0.7226 -0.6016,1.0142 -0.2817,0.2884 -0.6297,0.5137 -1.044,0.6762 -0.4143,0.159 -0.88,0.2386 -1.397,0.2386 z"
       fill="#0b7384"
       id="path3"
       style="fill:#1a1a1a" />
    <path
       d="M 64.027,14.5 V 6.86364 h 1.1335 v 1.15341 h 0.0796 c 0.1392,-0.37785 0.391,-0.68443 0.7556,-0.91975 0.3646,-0.23532 0.7756,-0.35298 1.233,-0.35298 0.0862,0 0.1939,0.00166 0.3231,0.00497 0.1293,0.00331 0.2271,0.00829 0.2934,0.01491 V 7.95739 C 67.8054,7.94744 67.7142,7.93253 67.5717,7.91264 67.4325,7.88944 67.285,7.87784 67.1293,7.87784 c -0.3713,0 -0.7027,0.07789 -0.9944,0.23367 -0.2883,0.15246 -0.517,0.36458 -0.686,0.63636 -0.1658,0.26846 -0.2486,0.57505 -0.2486,0.91974 V 14.5 Z"
       fill="#0b7384"
       id="path4"
       style="fill:#1a1a1a" />
    <path
       d="M 69.236,17.3636 V 6.86364 h 1.1335 V 8.0767 h 0.1392 c 0.0862,-0.13257 0.2055,-0.30161 0.358,-0.5071 0.1557,-0.2088 0.3778,-0.39441 0.6661,-0.55682 0.2917,-0.16572 0.6861,-0.24858 1.1833,-0.24858 0.643,0 1.2097,0.16075 1.7003,0.48225 0.4905,0.3215 0.8733,0.77722 1.1484,1.36719 0.2751,0.58996 0.4126,1.28598 0.4126,2.08806 0,0.8087 -0.1375,1.5097 -0.4126,2.103 -0.2751,0.5899 -0.6562,1.0473 -1.1435,1.3721 -0.4872,0.3215 -1.049,0.4823 -1.6853,0.4823 -0.4906,0 -0.8833,-0.0812 -1.1783,-0.2436 -0.295,-0.1657 -0.522,-0.353 -0.6811,-0.5618 -0.1591,-0.2121 -0.2817,-0.3878 -0.3679,-0.527 h -0.0994 v 4.0369 z m 1.1534,-6.6818 c 0,0.5767 0.0845,1.0855 0.2535,1.5263 0.1691,0.4375 0.416,0.7805 0.7408,1.0291 0.3248,0.2453 0.7225,0.3679 1.1932,0.3679 0.4905,0 0.8998,-0.1292 1.228,-0.3878 0.3314,-0.2618 0.58,-0.6131 0.7457,-1.0539 0.169,-0.4442 0.2536,-0.938 0.2536,-1.4816 0,-0.5369 -0.0829,-1.02082 -0.2486,-1.45169 C 74.3932,8.79593 74.1462,8.45289 73.8148,8.20099 73.4867,7.94579 73.074,7.81818 72.5769,7.81818 c -0.4773,0 -0.8783,0.12098 -1.2031,0.36293 -0.3249,0.23863 -0.5701,0.57339 -0.7358,1.00426 -0.1658,0.42756 -0.2486,0.92633 -0.2486,1.49643 z"
       fill="#0b7384"
       id="path5"
       style="fill:#1a1a1a" />
    <path
       d="m 80.9689,14.6591 c -0.7358,0 -1.3705,-0.1624 -1.9041,-0.4872 -0.5303,-0.3281 -0.9396,-0.7855 -1.228,-1.3722 -0.285,-0.5899 -0.4275,-1.276 -0.4275,-2.0582 0,-0.78222 0.1425,-1.47161 0.4275,-2.0682 0.2884,-0.59991 0.6894,-1.06724 1.2031,-1.40199 0.5171,-0.33807 1.1203,-0.50711 1.8097,-0.50711 0.3977,0 0.7905,0.06629 1.1783,0.19887 0.3878,0.13257 0.7407,0.34801 1.0589,0.64631 0.3182,0.29498 0.5718,0.68607 0.7607,1.17329 0.1889,0.48722 0.2834,1.08712 0.2834,1.79973 v 0.4971 h -5.8864 v -1.0142 h 4.6932 C 82.9377,9.63447 82.8515,9.25 82.6792,8.91193 82.5101,8.57386 82.2682,8.30705 81.9533,8.11151 81.6417,7.91596 81.2738,7.81818 80.8496,7.81818 c -0.4673,0 -0.8717,0.11601 -1.2131,0.34801 -0.338,0.2287 -0.5982,0.52699 -0.7805,0.89489 -0.1823,0.3679 -0.2734,0.76231 -0.2734,1.18322 v 0.6762 c 0,0.5767 0.0994,1.0655 0.2983,1.4666 0.2021,0.3977 0.4822,0.701 0.8402,0.9098 0.3579,0.2055 0.7739,0.3082 1.2478,0.3082 0.3083,0 0.5867,-0.0431 0.8353,-0.1292 0.2518,-0.0895 0.4689,-0.2221 0.6512,-0.3978 0.1823,-0.179 0.3232,-0.401 0.4226,-0.6662 l 1.1335,0.3182 c -0.1193,0.3845 -0.3198,0.7226 -0.6015,1.0142 -0.2817,0.2884 -0.6298,0.5137 -1.0441,0.6762 -0.4143,0.159 -0.8799,0.2386 -1.397,0.2386 z"
       fill="#0b7384"
       id="path6"
       style="fill:#1a1a1a" />
    <path
       d="M 89.2367,6.86364 V 7.85795 H 85.2793 V 6.86364 Z m -2.804,-1.82955 h 1.1733 v 7.27841 c 0,0.3314 0.0481,0.58 0.1442,0.7457 0.0994,0.1624 0.2254,0.2718 0.3778,0.3282 0.1558,0.053 0.3199,0.0795 0.4922,0.0795 0.1293,0 0.2353,-0.0066 0.3182,-0.0199 0.0828,-0.0165 0.1491,-0.0298 0.1989,-0.0398 l 0.2386,1.054 c -0.0796,0.0299 -0.1906,0.0597 -0.3331,0.0895 -0.1425,0.0332 -0.3232,0.0497 -0.5419,0.0497 -0.3315,0 -0.6563,-0.0712 -0.9744,-0.2137 -0.3149,-0.1426 -0.5767,-0.3597 -0.7856,-0.6513 -0.2054,-0.2917 -0.3082,-0.6596 -0.3082,-1.1037 z"
       fill="#0b7384"
       id="path7"
       style="fill:#1a1a1a" />
    <path
       d="M 95.8141,11.3778 V 6.86364 h 1.1733 V 14.5 h -1.1733 v -1.2926 h -0.0795 c -0.179,0.3878 -0.4574,0.7176 -0.8353,0.9893 -0.3778,0.2685 -0.8551,0.4027 -1.4318,0.4027 -0.4773,0 -0.9015,-0.1044 -1.2727,-0.3132 -0.3712,-0.2121 -0.6629,-0.5303 -0.875,-0.9545 -0.2121,-0.4276 -0.3182,-0.9662 -0.3182,-1.6158 V 6.86364 h 1.1733 v 4.77276 c 0,0.5568 0.1558,1.0009 0.4673,1.3324 0.3149,0.3314 0.7159,0.4971 1.2031,0.4971 0.2917,0 0.5883,-0.0746 0.89,-0.2237 0.3049,-0.1492 0.5601,-0.3779 0.7656,-0.6861 0.2088,-0.3082 0.3132,-0.701 0.3132,-1.1783 z"
       fill="#0b7384"
       id="path8"
       style="fill:#1a1a1a" />
    <path
       d="m 101.384,14.679 c -0.484,0 -0.924,-0.0912 -1.318,-0.2735 -0.3944,-0.1856 -0.7076,-0.4524 -0.9396,-0.8004 -0.232,-0.3513 -0.348,-0.7756 -0.348,-1.2727 0,-0.4375 0.0862,-0.7922 0.2585,-1.0639 0.1724,-0.2751 0.4027,-0.4906 0.6911,-0.6463 0.288,-0.1558 0.607,-0.2718 0.955,-0.3481 0.351,-0.0795 0.704,-0.1425 1.058,-0.1889 0.464,-0.0596 0.841,-0.10438 1.129,-0.13421 0.292,-0.03314 0.504,-0.08783 0.636,-0.16406 0.136,-0.07623 0.204,-0.20881 0.204,-0.39773 V 9.34943 c 0,-0.49053 -0.134,-0.87168 -0.402,-1.14346 -0.266,-0.27178 -0.668,-0.40767 -1.209,-0.40767 -0.56,0 -0.999,0.12263 -1.317,0.36789 -0.318,0.24527 -0.542,0.50711 -0.671,0.78551 L 98.9972,8.55398 c 0.1988,-0.46402 0.464,-0.82529 0.7954,-1.08381 0.3344,-0.26184 0.6994,-0.44413 1.0934,-0.54687 0.398,-0.10607 0.789,-0.1591 1.174,-0.1591 0.245,0 0.527,0.02983 0.845,0.08949 0.321,0.05635 0.631,0.17401 0.93,0.35299 0.301,0.17897 0.551,0.4491 0.75,0.81037 0.199,0.36126 0.299,0.84517 0.299,1.4517 V 14.5 h -1.174 v -1.0341 h -0.059 c -0.08,0.1657 -0.213,0.343 -0.398,0.532 -0.186,0.1889 -0.433,0.3496 -0.741,0.4822 -0.308,0.1326 -0.684,0.1989 -1.128,0.1989 z m 0.178,-1.054 c 0.465,0 0.856,-0.0911 1.174,-0.2734 0.321,-0.1823 0.563,-0.4177 0.726,-0.706 0.165,-0.2884 0.248,-0.5916 0.248,-0.9098 v -1.0739 c -0.049,0.0597 -0.159,0.1144 -0.328,0.1641 -0.166,0.0464 -0.358,0.0878 -0.577,0.1243 -0.215,0.0331 -0.426,0.063 -0.631,0.0895 -0.202,0.0232 -0.366,0.0431 -0.492,0.0596 -0.305,0.0398 -0.59,0.1044 -0.855,0.1939 -0.262,0.0862 -0.474,0.2171 -0.637,0.3928 -0.159,0.1723 -0.2383,0.4076 -0.2383,0.7059 0,0.4077 0.1513,0.716 0.4523,0.9248 0.305,0.2055 0.691,0.3082 1.158,0.3082 z"
       fill="#0b7384"
       id="path9"
       style="fill:#1a1a1a" />
    <path
       d="M 108.198,4.31818 V 14.5 h -1.173 V 4.31818 Z"
       fill="#0b7384"
       id="path10"
       style="fill:#1a1a1a" />
    <path
       d="m 46.4972,24.093 v -1.7748 h 8.3622 V 24.093 H 51.7422 V 32.5 h -2.1279 v -8.407 z"
       fill="#0b7384"
       id="path11"
       style="fill:#1a1a1a" />
    <path
       d="m 58.5694,32.6491 c -0.7855,0 -1.4616,-0.159 -2.0284,-0.4772 -0.5634,-0.3215 -0.9976,-0.7756 -1.3025,-1.3622 -0.305,-0.59 -0.4574,-1.2877 -0.4574,-2.0931 0,-0.7855 0.1524,-1.4749 0.4574,-2.0682 0.3049,-0.5932 0.7341,-1.0556 1.2876,-1.387 0.5568,-0.3315 1.2098,-0.4972 1.9588,-0.4972 0.5038,0 0.9728,0.0812 1.407,0.2436 0.4375,0.1591 0.8186,0.3994 1.1434,0.7209 0.3282,0.3215 0.5834,0.7258 0.7657,1.2131 0.1823,0.4839 0.2734,1.0506 0.2734,1.7002 v 0.5817 h -6.4482 v -1.3125 h 4.4546 c 0,-0.3049 -0.0663,-0.575 -0.1989,-0.8103 -0.1326,-0.2354 -0.3165,-0.4193 -0.5518,-0.5519 -0.232,-0.1359 -0.5022,-0.2038 -0.8104,-0.2038 -0.3215,0 -0.6065,0.0745 -0.8551,0.2237 -0.2453,0.1458 -0.4375,0.343 -0.5767,0.5916 -0.1392,0.2453 -0.2105,0.5187 -0.2138,0.8203 v 1.2479 c 0,0.3778 0.0696,0.7043 0.2088,0.9794 0.1425,0.2751 0.3431,0.4872 0.6016,0.6364 0.2585,0.1491 0.5651,0.2237 0.9197,0.2237 0.2353,0 0.4508,-0.0332 0.6463,-0.0994 0.1956,-0.0663 0.363,-0.1658 0.5022,-0.2983 0.1392,-0.1326 0.2452,-0.295 0.3181,-0.4873 l 1.9589,0.1293 c -0.0995,0.4706 -0.3033,0.8816 -0.6116,1.233 -0.3049,0.348 -0.6993,0.6197 -1.1832,0.8153 -0.4806,0.1922 -1.0357,0.2883 -1.6655,0.2883 z"
       fill="#0b7384"
       id="path12"
       style="fill:#1a1a1a" />
    <path
       d="m 65.6341,32.6442 c -0.4873,0 -0.9214,-0.0845 -1.3026,-0.2536 -0.3812,-0.1723 -0.6828,-0.4259 -0.9048,-0.7606 -0.2188,-0.3381 -0.3282,-0.759 -0.3282,-1.2628 0,-0.4243 0.0779,-0.7806 0.2337,-1.0689 0.1558,-0.2884 0.3679,-0.5204 0.6364,-0.696 0.2684,-0.1757 0.5734,-0.3083 0.9147,-0.3978 0.3447,-0.0894 0.706,-0.1524 1.0839,-0.1889 0.4441,-0.0464 0.802,-0.0895 1.0738,-0.1292 0.2718,-0.0431 0.469,-0.1061 0.5916,-0.189 0.1227,-0.0828 0.184,-0.2054 0.184,-0.3679 v -0.0298 c 0,-0.3149 -0.0995,-0.5585 -0.2983,-0.7308 -0.1956,-0.1724 -0.474,-0.2585 -0.8352,-0.2585 -0.3812,0 -0.6845,0.0845 -0.9098,0.2535 -0.2254,0.1657 -0.3746,0.3745 -0.4475,0.6264 L 63.367,27.0312 c 0.0994,-0.464 0.295,-0.865 0.5867,-1.2031 0.2916,-0.3414 0.6678,-0.6032 1.1285,-0.7855 0.464,-0.1856 1.001,-0.2784 1.6108,-0.2784 0.4242,0 0.8303,0.0497 1.218,0.1492 0.3911,0.0994 0.7375,0.2535 1.0391,0.4623 0.3049,0.2088 0.5452,0.4773 0.7209,0.8054 0.1756,0.3248 0.2635,0.7143 0.2635,1.1683 V 32.5 H 67.926 v -1.0589 h -0.0597 c -0.1226,0.2386 -0.2867,0.4491 -0.4922,0.6313 -0.2055,0.179 -0.4524,0.3199 -0.7408,0.4226 -0.2883,0.0995 -0.6214,0.1492 -0.9992,0.1492 z m 0.6065,-1.4617 c 0.3115,0 0.5866,-0.0613 0.8253,-0.1839 0.2386,-0.126 0.4259,-0.295 0.5618,-0.5071 0.1358,-0.2121 0.2038,-0.4524 0.2038,-0.7209 v -0.8104 c -0.0663,0.0431 -0.1574,0.0829 -0.2734,0.1193 -0.1127,0.0332 -0.2403,0.0647 -0.3829,0.0945 -0.1425,0.0265 -0.285,0.0514 -0.4275,0.0746 -0.1425,0.0199 -0.2718,0.0381 -0.3878,0.0547 -0.2486,0.0364 -0.4657,0.0944 -0.6513,0.174 -0.1856,0.0795 -0.3298,0.1872 -0.4325,0.3231 -0.1027,0.1326 -0.1541,0.2983 -0.1541,0.4972 0,0.2883 0.1044,0.5087 0.3132,0.6612 0.2121,0.1492 0.4806,0.2237 0.8054,0.2237 z"
       fill="#0b7384"
       id="path13"
       style="fill:#1a1a1a" />
    <path
       d="m 71.5776,32.5 v -7.6364 h 2.0185 v 1.3473 h 0.0894 c 0.1591,-0.4474 0.4243,-0.8004 0.7955,-1.0589 0.3712,-0.2585 0.8153,-0.3878 1.3324,-0.3878 0.5237,0 0.9695,0.1309 1.3373,0.3928 0.3679,0.2585 0.6132,0.6098 0.7358,1.0539 h 0.0796 c 0.1558,-0.4375 0.4375,-0.7871 0.8452,-1.049 0.4109,-0.2651 0.8965,-0.3977 1.4566,-0.3977 0.7126,0 1.291,0.227 1.7351,0.6811 0.4475,0.4508 0.6712,1.0904 0.6712,1.919 V 32.5 h -2.1129 v -4.718 c 0,-0.4243 -0.1127,-0.7425 -0.3381,-0.9546 -0.2254,-0.2121 -0.5071,-0.3182 -0.8452,-0.3182 -0.3844,0 -0.6844,0.1227 -0.8998,0.3679 -0.2155,0.242 -0.3232,0.5618 -0.3232,0.9595 V 32.5 h -2.0533 v -4.7628 c 0,-0.3745 -0.1077,-0.6728 -0.3231,-0.8949 -0.2121,-0.222 -0.4922,-0.3331 -0.8402,-0.3331 -0.2353,0 -0.4475,0.0597 -0.6364,0.179 -0.1856,0.116 -0.3331,0.2801 -0.4424,0.4922 -0.1094,0.2088 -0.1641,0.4541 -0.1641,0.7358 V 32.5 Z"
       fill="#0b7384"
       id="path14"
       style="fill:#1a1a1a" />
    <path
       d="m 84.3869,22.3182 h 2.6548 l 2.804,6.8409 h 0.1193 l 2.804,-6.8409 h 2.6548 V 32.5 h -2.088 v -6.6271 h -0.0846 l -2.6349,6.5774 H 89.1944 L 86.5595,25.848 H 86.475 V 32.5 h -2.0881 z"
       fill="#0b7384"
       id="path15"
       style="fill:#1a1a1a" />
    <path
       d="m 99.3352,32.6442 c -0.4872,0 -0.9214,-0.0845 -1.3025,-0.2536 -0.3812,-0.1723 -0.6828,-0.4259 -0.9049,-0.7606 -0.2187,-0.3381 -0.3281,-0.759 -0.3281,-1.2628 0,-0.4243 0.0779,-0.7806 0.2337,-1.0689 0.1558,-0.2884 0.3679,-0.5204 0.6363,-0.696 0.2685,-0.1757 0.5734,-0.3083 0.9148,-0.3978 0.3447,-0.0894 0.706,-0.1524 1.0838,-0.1889 0.4437,-0.0464 0.8017,-0.0895 1.0737,-0.1292 0.272,-0.0431 0.469,-0.1061 0.592,-0.189 0.122,-0.0828 0.184,-0.2054 0.184,-0.3679 v -0.0298 c 0,-0.3149 -0.1,-0.5585 -0.299,-0.7308 -0.195,-0.1724 -0.474,-0.2585 -0.835,-0.2585 -0.381,0 -0.6842,0.0845 -0.9096,0.2535 -0.2253,0.1657 -0.3745,0.3745 -0.4474,0.6264 l -1.9588,-0.1591 c 0.0994,-0.464 0.295,-0.865 0.5866,-1.2031 0.2917,-0.3414 0.6679,-0.6032 1.1286,-0.7855 0.464,-0.1856 1.0009,-0.2784 1.6106,-0.2784 0.424,0 0.83,0.0497 1.218,0.1492 0.391,0.0994 0.738,0.2535 1.039,0.4623 0.305,0.2088 0.546,0.4773 0.721,0.8054 0.176,0.3248 0.264,0.7143 0.264,1.1683 V 32.5 h -2.009 v -1.0589 h -0.06 c -0.122,0.2386 -0.286,0.4491 -0.492,0.6313 -0.205,0.179 -0.452,0.3199 -0.74,0.4226 -0.289,0.0995 -0.6219,0.1492 -0.9998,0.1492 z m 0.6066,-1.4617 c 0.3112,0 0.5862,-0.0613 0.8252,-0.1839 0.239,-0.126 0.426,-0.295 0.562,-0.5071 0.136,-0.2121 0.204,-0.4524 0.204,-0.7209 v -0.8104 c -0.067,0.0431 -0.158,0.0829 -0.274,0.1193 -0.112,0.0332 -0.24,0.0647 -0.383,0.0945 -0.142,0.0265 -0.285,0.0514 -0.427,0.0746 -0.143,0.0199 -0.272,0.0381 -0.388,0.0547 -0.2485,0.0364 -0.4656,0.0944 -0.6512,0.174 -0.1856,0.0795 -0.3298,0.1872 -0.4325,0.3231 -0.1028,0.1326 -0.1541,0.2983 -0.1541,0.4972 0,0.2883 0.1044,0.5087 0.3132,0.6612 0.2121,0.1492 0.4806,0.2237 0.8054,0.2237 z"
       fill="#0b7384"
       id="path16"
       style="fill:#1a1a1a" />
    <path
       d="m 109.341,24.8636 v 1.5909 h -4.599 v -1.5909 z m -3.555,-1.8295 h 2.118 v 7.1193 c 0,0.1956 0.03,0.348 0.089,0.4574 0.06,0.1061 0.143,0.1806 0.249,0.2237 0.109,0.0431 0.235,0.0646 0.378,0.0646 0.099,0 0.199,-0.0082 0.298,-0.0248 0.099,-0.0199 0.176,-0.0348 0.229,-0.0448 l 0.333,1.576 c -0.106,0.0332 -0.255,0.0713 -0.448,0.1144 -0.192,0.0464 -0.426,0.0746 -0.701,0.0845 -0.51,0.0199 -0.958,-0.0481 -1.342,-0.2038 -0.381,-0.1558 -0.678,-0.3978 -0.89,-0.7259 -0.212,-0.3281 -0.316,-0.7424 -0.313,-1.2429 z"
       fill="#0b7384"
       id="path17"
       style="fill:#1a1a1a" />
    <path
       d="m 114.118,32.6491 c -0.785,0 -1.461,-0.159 -2.028,-0.4772 -0.564,-0.3215 -0.998,-0.7756 -1.303,-1.3622 -0.305,-0.59 -0.457,-1.2877 -0.457,-2.0931 0,-0.7855 0.152,-1.4749 0.457,-2.0682 0.305,-0.5932 0.734,-1.0556 1.288,-1.387 0.557,-0.3315 1.21,-0.4972 1.959,-0.4972 0.504,0 0.973,0.0812 1.407,0.2436 0.437,0.1591 0.818,0.3994 1.143,0.7209 0.328,0.3215 0.583,0.7258 0.766,1.2131 0.182,0.4839 0.273,1.0506 0.273,1.7002 v 0.5817 h -6.448 v -1.3125 h 4.455 c 0,-0.3049 -0.067,-0.575 -0.199,-0.8103 -0.133,-0.2354 -0.317,-0.4193 -0.552,-0.5519 -0.232,-0.1359 -0.502,-0.2038 -0.81,-0.2038 -0.322,0 -0.607,0.0745 -0.856,0.2237 -0.245,0.1458 -0.437,0.343 -0.576,0.5916 -0.139,0.2453 -0.211,0.5187 -0.214,0.8203 v 1.2479 c 0,0.3778 0.07,0.7043 0.209,0.9794 0.142,0.2751 0.343,0.4872 0.601,0.6364 0.259,0.1491 0.565,0.2237 0.92,0.2237 0.235,0 0.451,-0.0332 0.646,-0.0994 0.196,-0.0663 0.363,-0.1658 0.502,-0.2983 0.14,-0.1326 0.246,-0.295 0.319,-0.4873 l 1.958,0.1293 c -0.099,0.4706 -0.303,0.8816 -0.611,1.233 -0.305,0.348 -0.699,0.6197 -1.183,0.8153 -0.481,0.1922 -1.036,0.2883 -1.666,0.2883 z"
       fill="#0b7384"
       id="path18"
       style="fill:#1a1a1a" />
  </g>
</svg>
